PathFileType	4	(X/Y/Z)	C:/Users/beibeiliu/ov580/test_trc\sequence.10_training_dense_right.trc
DataRate	CameraRate	NumFrames	NumMarkers	Units	OrigDataRate	OrigDataStartFrame	OrigNumFrames
120	120	12	19	mm	120	76	302
Frame#	Time	ThumbCMC			ThumbMCP			ThumbIP			ThumbTip			IndexMCP			IndexPIP			IndexTip			MiddleMCP			MiddlePIP			MiddleTip			RingMCP			RingPIP			RingTip			PinkyMCP			PinkyPIP			PinkyTip			BackHand1			BackHand2			BackHand3	
		X0	Y0	Z0	X1	Y1	Z1	X2	Y2	Z2	X3	Y3	Z3	X4	Y4	Z4	X5	Y5	Z5	X6	Y6	Z6	X7	Y7	Z7	X8	Y8	Z8	X9	Y9	Z9	X10	Y10	Z10	X11	Y11	Z11	X12	Y12	Z12	X13	Y13	Z13	X14	Y14	Z14	X15	Y15	Z15	X16	Y16	Z16	X17	Y17	Z17	X18	Y18	Z18	
75	0.625	145.499	-12.9661	-6.02994	126.501	-16.1897	-26.04	124.784	-14.4237	-49.8011	128.516	-12.3404	-75.9364	143.134	13.1171	-70.2989	141.535	18.4571	-90.5648	138.83	26.1387	-109.903	157.048	19.1313	-73.2893	155.059	26.7102	-96.8031	154.73	39.1667	-118.975	177.422	21.4519	-72.6974	173.743	25.6204	-87.6591	172.287	34.4038	-107.322	195.043	16.08	-58.1043	192.982	21.919	-74.454	187.899	32.4816	-92.5987	184.241	18.1198	-29.2782	185.092	13.587	-1.75576	154.983	13.1374	-14.9838	
76	0.633333	146.564	-15.796	-5.69157	127.724	-18.1177	-31.2739	128.009	-17.7576	-52.9319	128.558	-18.3653	-76.2903	144.427	10.1309	-67.9783	137.971	13.9539	-90.5616	140.335	24.3752	-114.333	155.272	18.2965	-76.6466	154.873	25.0665	-97.7024	150.992	33.7077	-117.622	173.716	19.6337	-70.3358	171.709	27.6909	-92.5029	169.171	33.7035	-108.763	191.008	18.1755	-59.2466	188.749	23.9763	-75.3322	181.178	33.3505	-93.5444	179.871	16.9686	-25.5908	182.782	19.2937	-4.7469	155.904	10.4631	-11.9084	
77	0.641667	145.498	-18.0448	-7.74971	132.353	-23.6135	-30.0479	128.733	-21.5598	-53.7082	131.488	-21.6831	-77.4614	138.761	7.27213	-74.3937	139.243	11.0997	-94.164	140.541	20.3954	-114.322	155.304	17.3052	-79.2236	150.908	20.8763	-98.0046	151.345	33.8861	-119.532	174.233	23.6447	-75.9588	168.379	24.6431	-91.4715	164.935	31.9153	-108.361	192.575	22.6701	-61.1582	188.338	27.505	-79.1934	182.238	35.1866	-97.398	177.001	18.6268	-29.9752	180.394	18.8153	-6.39629	155.689	9.72009	-16.6634	
78	0.65	146.098	-21.432	-7.86678	131.457	-29.2915	-30.4855	128.733	-24.3307	-60.3392	136.766	-21.5653	-79.5793	141.934	3.17016	-72.3652	136.862	7.55003	-95.2588	138.653	16.9483	-115.831	153.755	15.3245	-77.0525	153.299	22.4428	-99.1197	148.183	31.6891	-119.929	171.934	23.4912	-74.978	168.829	29.588	-94.0504	163.847	33.957	-111.878	187.344	26.1197	-64.4063	185.871	30.1564	-77.7232	176.813	35.5268	-94.3839	171.771	20.8779	-29.1078	171.585	18.7417	-3.07469	151.707	7.48731	-18.8479	
79	0.658333	146.105	-23.4214	-11.0086	131.504	-31.348	-33.3982	133.401	-29.5342	-54.8555	138.211	-24.4509	-78.0925	138.208	0.21011	-77.9744	139.467	7.60464	-98.1681	134.601	11.2709	-117.721	150.421	13.0855	-79.0046	149.823	19.0028	-99.3691	143.332	30.5497	-124.415	167.372	20.9098	-71.9825	163.407	27.4677	-94.1418	159.88	34.323	-113.885	184.026	29.0037	-63.1018	177.698	28.3823	-78.2622	173.977	38.5687	-96.5018	168.068	20.5796	-28.0148	166.678	18.4722	-5.82028	148.645	3.27925	-17.7006	
80	0.666667	145.467	-24.9618	-9.70099	132.298	-33.4936	-36.1505	133.361	-31.8184	-58.5975	136.693	-31.1231	-81.2571	140.18	0.399214	-77.6425	137.775	2.8259	-97.9951	135.589	9.3338	-117.966	150.903	12.6249	-81.1029	149.774	18.9885	-100.72	141.981	25.8538	-121.695	164.809	21.5441	-71.8986	161.867	24.6066	-92.1741	156.174	31.8273	-111.577	178.559	26.7247	-61.1945	176.388	31.3182	-80.2002	171.113	37.1169	-98.9658	163.605	19.1877	-28.1658	164.591	17.8591	-5.20886	146.271	1.34106	-17.8959	
81	0.675	145.282	-27.7304	-10.9234	134.991	-37.3709	-35.4884	134.199	-35.55	-59.1684	141.664	-30.0923	-78.3845	137.342	-5.6421	-78.3361	137.396	-1.61872	-98.7989	134.072	5.77854	-119.899	149.611	12.6932	-83.3482	148.098	16.5779	-104.143	139.851	22.6685	-123.061	162.382	22.074	-73.7321	157.255	23.9733	-94.0973	155.638	33.2671	-111.773	175.667	27.6517	-62.1625	174.041	31.9691	-78.8607	166.865	36.5314	-94.6537	161.805	18.314	-26.2783	162.403	19.9549	-2.9985	145.511	2.69781	-18.9249	
82	0.683333	142.819	-32.2629	-11.9547	136.375	-40.4824	-36.3022	137.914	-35.7911	-60.4693	143.736	-32.5664	-80.8371	139.966	-6.35787	-78.8178	138.38	-3.94282	-96.9093	137.692	2.00973	-115.926	147.096	7.38679	-80.6406	144.352	8.61421	-98.6772	137.871	20.6686	-124.581	158.511	19.4743	-74.2315	154.914	21.3979	-94.6489	152.523	27.7587	-109.483	172	26.4623	-57.9061	170.439	31.4066	-77.1987	163.432	34.1558	-92.3591	157.451	19.1318	-30.6813	154.292	17.3273	-5.71283	141.348	-2.00671	-21.6102	
83	0.691667	144.278	-32.227	-10.306	136.681	-45.0598	-37.643	138.44	-42.1437	-59.3983	144.49	-37.5654	-81.3748	139.049	-10.2951	-75.8871	136.904	-8.37827	-99.525	134.475	-3.61046	-120.088	146.102	6.13382	-79.3775	144.801	7.4368	-99.5143	138.324	14.665	-122.075	155.892	14.5831	-70.3471	155.106	19.4288	-89.958	147.144	22.8674	-111.361	167.409	25.187	-61.0084	164.718	27.049	-79.0361	159.401	30.798	-92.4866	153.474	18.623	-28.4254	152.38	16.8149	-1.22652	136.649	-3.69222	-20.3762	
84	0.7	142.504	-35.641	-10.4268	138.459	-45.8051	-36.2895	139.653	-46.0087	-61.9891	146.911	-41.6309	-78.7607	135.847	-17.8686	-78.727	139.413	-10.7016	-98.9031	136.901	-5.75047	-119.542	144.542	-0.343788	-78.8287	142.146	4.63468	-102.953	137.749	14.1801	-123.49	151.595	11.8811	-73.531	152.825	20.0686	-90.7351	146.627	18.1844	-110.428	165.115	23.6803	-54.8543	163.204	27.8487	-74.2787	156.962	25.928	-91.7371	146.69	11.0765	-30.9593	145.121	13.1584	-4.79749	135.171	-7.05724	-22.0392	
85	0.708333	140.806	-37.8448	-11.9803	139.153	-51.0517	-36.021	143.034	-46.611	-59.814	148.096	-47.8173	-79.9736	138.125	-19.8743	-75.7854	139.018	-14.0726	-97.4589	137.849	-7.3634	-119.473	142.183	-3.09884	-82.8799	143.281	3.13176	-98.9763	136.738	10.6324	-124.72	152.124	14.5013	-72.6327	149.957	14.2656	-89.6231	146.586	21.5458	-110.363	160.661	22.5057	-58.2424	159.655	25.4276	-73.5486	154.766	24.2107	-94.9459	143.687	8.86384	-27.0584	141.516	9.54553	-0.953352	132.023	-10.1753	-17.6171	
86	0.716667	138.207	-41.6343	-11.1241	139.563	-55.8543	-34.1337	142.126	-52.0321	-61.493	149.404	-51.0445	-78.543	137.038	-20.6545	-77.3844	140.541	-16.2047	-94.2187	140.188	-6.066	-119.38	141.502	-2.38782	-78.8671	142.04	2.00482	-99.9528	137.647	7.49813	-124.349	149.383	13.0255	-72.5474	147.686	12.8162	-91.4526	143.81	15.7307	-111.332	157.64	20.9621	-55.1509	155.436	22.3005	-73.701	151.813	24.2983	-89.8943	140.933	8.0826	-27.8423	133.586	9.13155	-1.58108	127.056	-13.5514	-20.8106	
